<svg width="382" height="308" viewBox="0 0 382 308" fill="none" xmlns="http://www.w3.org/2000/svg">
<path fill-rule="evenodd" clip-rule="evenodd" d="M172.5 29.5C172.5 29.8355 172.509 30.1689 172.527 30.5H126C70.7715 30.5 26 75.2715 26 130.5V160.993C16.0776 160.252 6.40709 165.963 2.5638 175.705C-2.16517 187.693 3.71909 201.245 15.7067 205.973L26.0318 210.047C27.3829 264.098 71.6229 307.5 126 307.5H256C310.318 307.5 354.52 264.193 355.964 210.224L366.737 205.973C378.725 201.245 384.609 187.693 379.88 175.705C375.98 165.818 366.077 160.082 356 161.03V130.5C356 75.2715 311.228 30.5 256 30.5H209.473C209.491 30.1689 209.5 29.8355 209.5 29.5V18.5C209.5 8.28273 201.217 0 191 0C180.783 0 172.5 8.28273 172.5 18.5V29.5Z" fill="url(#paint0_linear_218_5100)"/>
<rect x="60" y="56.5" width="262" height="197" rx="80" fill="white"/>
<path d="M126.146 131.56C121.2 142.627 120.064 161.158 126.149 166.175C132.233 171.192 136.267 160.323 146.25 160.657C155.371 160.961 158.872 171.697 164.953 165.172C171.034 158.646 169.618 142.737 164.953 131.56C160.452 120.777 153.74 113.5 145.324 113.5C136.908 113.5 131.117 120.436 126.146 131.56Z" fill="#A191FC" stroke="white"/>
<path d="M217.146 131.56C212.2 142.627 211.064 161.158 217.149 166.175C223.233 171.192 227.267 160.323 237.25 160.657C246.371 160.961 249.872 171.697 255.953 165.172C262.034 158.646 260.618 142.737 255.953 131.56C251.452 120.777 244.74 113.5 236.324 113.5C227.908 113.5 222.117 120.436 217.146 131.56Z" fill="#A191FC" stroke="white"/>
<defs>
    <linearGradient id="paint0_linear_218_5100" x1="0.929687" y1="0" x2="301.569" y2="372.093" gradientUnits="userSpaceOnUse">
        <stop stop-color="#7095FF"/>
        <stop offset="1" stop-color="#C57DFF"/>
    </linearGradient>
</defs>
</svg>
