<svg width="36" height="36" viewBox="0 0 36 36" fill="none" xmlns="http://www.w3.org/2000/svg">
    <path d="M30 21.375C31.864 21.375 33.375 19.864 33.375 18C33.375 16.136 31.864 14.625 30 14.625C28.136 14.625 26.625 16.136 26.625 18C26.625 19.864 28.136 21.375 30 21.375Z" fill="url(#paint0_linear_288_3477)"/>
    <path d="M30 9.375C31.864 9.375 33.375 7.86396 33.375 6C33.375 4.13604 31.864 2.625 30 2.625C28.136 2.625 26.625 4.13604 26.625 6C26.625 7.86396 28.136 9.375 30 9.375Z" fill="url(#paint1_linear_288_3477)"/>
    <path d="M30 33.375C31.864 33.375 33.375 31.864 33.375 30C33.375 28.136 31.864 26.625 30 26.625C28.136 26.625 26.625 28.136 26.625 30C26.625 31.864 28.136 33.375 30 33.375Z" fill="url(#paint2_linear_288_3477)"/>
    <path d="M6 21.375C7.86396 21.375 9.375 19.864 9.375 18C9.375 16.136 7.86396 14.625 6 14.625C4.13604 14.625 2.625 16.136 2.625 18C2.625 19.864 4.13604 21.375 6 21.375Z" fill="url(#paint3_linear_288_3477)"/>
    <path d="M28.5 19.125C29.115 19.125 29.625 18.615 29.625 18C29.625 17.385 29.115 16.875 28.5 16.875H17.625V10.5C17.625 8.13 18.63 7.125 21 7.125H28.5C29.115 7.125 29.625 6.615 29.625 6C29.625 5.385 29.115 4.875 28.5 4.875H21C17.37 4.875 15.375 6.87 15.375 10.5V16.875H7.5C6.885 16.875 6.375 17.385 6.375 18C6.375 18.615 6.885 19.125 7.5 19.125H15.375V25.5C15.375 29.13 17.37 31.125 21 31.125H28.5C29.115 31.125 29.625 30.615 29.625 30C29.625 29.385 29.115 28.875 28.5 28.875H21C18.63 28.875 17.625 27.87 17.625 25.5V19.125H28.5Z" fill="url(#paint4_linear_288_3477)"/>
    <defs>
        <linearGradient id="paint0_linear_288_3477" x1="26.625" y1="14.625" x2="33.375" y2="21.375" gradientUnits="userSpaceOnUse">
            <stop stop-color="#7095FF"/>
            <stop offset="1" stop-color="#C57DFF"/>
        </linearGradient>
        <linearGradient id="paint1_linear_288_3477" x1="26.625" y1="2.625" x2="33.375" y2="9.375" gradientUnits="userSpaceOnUse">
            <stop stop-color="#7095FF"/>
            <stop offset="1" stop-color="#C57DFF"/>
        </linearGradient>
        <linearGradient id="paint2_linear_288_3477" x1="26.625" y1="26.625" x2="33.375" y2="33.375" gradientUnits="userSpaceOnUse">
            <stop stop-color="#7095FF"/>
            <stop offset="1" stop-color="#C57DFF"/>
        </linearGradient>
        <linearGradient id="paint3_linear_288_3477" x1="2.625" y1="14.625" x2="9.375" y2="21.375" gradientUnits="userSpaceOnUse">
            <stop stop-color="#7095FF"/>
            <stop offset="1" stop-color="#C57DFF"/>
        </linearGradient>
        <linearGradient id="paint4_linear_288_3477" x1="6.375" y1="4.875" x2="32.4329" y2="27.9548" gradientUnits="userSpaceOnUse">
            <stop stop-color="#7095FF"/>
            <stop offset="1" stop-color="#C57DFF"/>
        </linearGradient>
    </defs>
</svg>
