<svg width="34" height="34" viewBox="0 0 34 34" fill="none" xmlns="http://www.w3.org/2000/svg">
<path d="M31.1093 16.5181C29.4235 15.4556 27.4685 14.8748 25.4568 14.8748C19.5918 14.8748 14.8318 19.6348 14.8318 25.4998C14.8318 27.5114 15.3985 29.4523 16.461 31.1381C15.8093 31.1239 15.1435 31.0531 14.4635 30.9539C8.64096 29.9623 3.95179 25.2448 2.98846 19.4081C1.38763 9.70393 9.66096 1.4306 19.3651 3.03143C25.2018 3.99476 29.9193 8.68393 30.911 14.5064C31.0243 15.1864 31.0951 15.8664 31.1093 16.5181Z" fill="#7095FF"/>
<path d="M18.9545 30.9683C17.7079 29.495 16.957 27.5825 16.957 25.5C16.957 20.8108 20.7679 17 25.457 17C27.5395 17 29.452 17.7508 30.9254 18.9975" fill="#7095FF"/>
</svg>
