<svg width="36" height="36" viewBox="0 0 36 36" fill="none" xmlns="http://www.w3.org/2000/svg">
<path fill-rule="evenodd" clip-rule="evenodd" d="M16.7 7.8C16.7 7.86814 16.7062 7.93496 16.718 8H13.8C7.28682 8 4.40977 10.5972 4.0411 17H3.6C2.71634 17 2 17.6716 2 18.5C2 19.3284 2.71634 20 3.6 20H4V21.5C4 29 6.8 32 13.8 32H22.2C29.2 32 32 29 32 21.5V20H32.4C33.2837 20 34 19.3284 34 18.5C34 17.6716 33.2837 17 32.4 17H31.9589C31.5902 10.5972 28.7132 8 22.2 8H19.282C19.2938 7.93496 19.3 7.86814 19.3 7.8V7.2C19.3 6.53726 18.718 6 18 6C17.282 6 16.7 6.53726 16.7 7.2V7.8ZM15.914 17.8824C15.9141 16.7129 14.9739 15.7647 13.8141 15.7647C12.6543 15.7647 11.7141 16.7127 11.714 17.8823L11.714 19.2941C11.714 20.4636 12.6541 21.4117 13.8139 21.4118C14.9737 21.4118 15.914 20.4637 15.914 19.2942L15.914 17.8824ZM22.2 15.793C23.3598 15.793 24.3 16.7411 24.3 17.9106V19.2941C24.3 20.4637 23.3598 21.4118 22.2 21.4118C21.0402 21.4118 20.1 20.4637 20.1 19.2941V17.9106C20.1 16.7411 21.0402 15.793 22.2 15.793Z" fill="url(#paint0_linear_6_11466)"/>
<defs>
<linearGradient id="paint0_linear_6_11466" x1="2" y1="6" x2="27.4494" y2="37.3224" gradientUnits="userSpaceOnUse">
<stop stop-color="#7095FF"/>
<stop offset="1" stop-color="#C57DFF"/>
</linearGradient>
</defs>
</svg>
