<svg width="28" height="28" viewBox="0 0 28 28" fill="none" xmlns="http://www.w3.org/2000/svg">
<g clip-path="url(#clip0_6_16894)">
<circle cx="14" cy="14" r="14" fill="#0084C0"/>
<path d="M4.7249 15.6661C4.7249 15.9944 4.81866 16.1584 5.00594 16.1584C5.20637 16.1542 5.37245 16.0156 5.50393 15.7429C5.54995 15.6493 5.58775 15.5343 5.61733 15.3977C5.61733 14.9206 5.6502 14.5116 5.71602 14.1705C5.44969 14.2388 5.21796 14.405 5.02073 14.669C4.82351 14.9333 4.7249 15.2658 4.7249 15.6661ZM7.05212 15.2826C7.11128 15.2826 7.14087 15.3809 7.14087 15.5766C7.14087 15.6832 7.10635 15.8122 7.03741 15.9634C6.96838 16.1147 6.87873 16.2533 6.76861 16.3789C6.65841 16.5046 6.53606 16.608 6.40129 16.689C6.26652 16.7698 6.13504 16.8102 6.00684 16.8102C5.83255 16.8102 5.71602 16.6122 5.65677 16.2158C5.57123 16.3991 5.45947 16.5493 5.3215 16.6665C5.18344 16.7838 4.99855 16.8423 4.76681 16.8423C4.53499 16.8423 4.34854 16.7486 4.20719 16.5609C4.06585 16.3736 3.99683 16.1455 4.00011 15.8771C4.00011 15.1529 4.18575 14.5819 4.55726 14.1641C4.71512 13.9895 4.86214 13.8745 4.99855 13.8191C5.13496 13.7637 5.27877 13.7359 5.42997 13.7359C5.58117 13.7359 5.70444 13.7701 5.79976 13.8381C5.84578 13.7147 5.89837 13.6529 5.95754 13.6529C6.07258 13.6529 6.18188 13.7178 6.28542 13.8478C6.38896 13.9779 6.44081 14.1002 6.44081 14.2152C6.39463 14.356 6.32733 14.5243 6.23858 14.7203C6.21228 14.9162 6.19905 15.1911 6.19905 15.5448C6.19905 15.8986 6.23365 16.0752 6.30268 16.0752C6.38814 16.0752 6.59522 15.8538 6.92392 15.4107C6.98309 15.3254 7.02582 15.2826 7.05212 15.2826Z" fill="white"/>
<path d="M9.22564 14.8476C9.22564 14.707 9.16318 14.6367 9.03828 14.6367C8.95281 14.6367 8.85749 14.7443 8.7523 14.9595C8.64704 15.1747 8.57143 15.4059 8.5255 15.653V15.6657C8.5255 15.8108 8.54267 15.9599 8.57719 16.1132C8.6117 16.2666 8.62904 16.3731 8.62904 16.4328C8.62904 16.5776 8.48926 16.7204 8.20994 16.861C8.16713 16.8822 8.12933 16.8931 8.09654 16.8931C8.01437 16.8931 7.95758 16.8375 7.92636 16.7268C7.89513 16.6161 7.87952 16.4659 7.87952 16.2762C7.87952 16.0866 7.88371 15.9077 7.89192 15.7394C7.90006 15.5711 7.90836 15.4157 7.91658 15.2727C7.92479 15.13 7.93301 15.0043 7.94115 14.8956C7.94936 14.7869 7.95356 14.6986 7.95356 14.6303C7.95356 14.4856 7.90252 14.413 7.80071 14.413C7.69881 14.413 7.5804 14.5675 7.44571 14.8764C7.31086 15.1855 7.24356 15.4304 7.24356 15.6113C7.24356 15.7927 7.26081 15.9599 7.29533 16.1132C7.32984 16.2666 7.3471 16.3731 7.3471 16.4328C7.3471 16.5776 7.20732 16.7204 6.928 16.861C6.88527 16.8822 6.84739 16.8931 6.8146 16.8931C6.73242 16.8931 6.67572 16.8375 6.6445 16.7268C6.61319 16.6161 6.59766 16.4454 6.59766 16.2153C6.59766 15.6104 6.61565 15.1736 6.65189 14.9052C6.70112 14.5088 6.81287 14.1339 6.98717 13.7802C7.04634 13.661 7.11043 13.6013 7.17946 13.6013C7.28793 13.6013 7.38819 13.7164 7.48022 13.9464C7.50652 14.0062 7.52616 14.0615 7.53939 14.1126C7.69717 13.857 7.8828 13.729 8.09654 13.729C8.2378 13.729 8.36443 13.7897 8.47619 13.9113C8.58787 14.0327 8.64383 14.1851 8.64383 14.3682V14.4385C8.84426 14.1148 9.08922 13.9528 9.3784 13.9528C9.55598 13.9528 9.69075 14.0125 9.7827 14.1318C9.87474 14.251 9.92084 14.3981 9.92084 14.5728C9.92084 14.7476 9.91098 14.9052 9.89126 15.0459C9.87145 15.1863 9.84935 15.3184 9.8247 15.4421C9.80004 15.5656 9.77786 15.6753 9.75813 15.7711C9.73841 15.8671 9.72847 15.9418 9.72847 15.9948C9.72847 16.0483 9.74162 16.0747 9.768 16.0747C9.81722 16.0747 9.87803 16.0344 9.95043 15.9534C10.0227 15.8725 10.0951 15.7841 10.1674 15.6882C10.2397 15.5923 10.3062 15.5039 10.3671 15.4229C10.4278 15.3419 10.4698 15.3014 10.4928 15.3014C10.5387 15.3014 10.5618 15.374 10.5618 15.5188C10.5618 15.8172 10.4459 16.1068 10.2141 16.388C9.98247 16.6691 9.73504 16.8098 9.47216 16.8098C9.23541 16.8098 9.11716 16.5308 9.11716 15.9726C9.11716 15.832 9.13516 15.638 9.1714 15.3908C9.20747 15.1439 9.22564 14.9627 9.22564 14.8476Z" fill="white"/>
<path d="M11.8942 15.5063C11.9501 15.3531 11.9781 15.2038 11.9781 15.059C11.9781 14.9142 11.9418 14.8417 11.8695 14.8417C11.8399 14.8417 11.8153 14.8694 11.7956 14.9248C11.7758 14.9802 11.766 15.0335 11.766 15.0846C11.766 15.255 11.8087 15.3957 11.8942 15.5063ZM11.9386 16.2479C11.6789 16.6443 11.3674 16.8423 11.0042 16.8423C10.6409 16.8423 10.3689 16.7218 10.1882 16.4811C10.0074 16.2404 9.91868 15.941 9.92196 15.5831C9.91868 15.0761 10.0419 14.6393 10.2918 14.2728C10.5416 13.9064 10.8687 13.7232 11.2729 13.7232C11.457 13.7232 11.6048 13.753 11.7167 13.8127C11.9106 13.9148 12.0076 14.0107 12.0076 14.1002C12.0076 14.1685 11.8719 14.2036 11.6009 14.2058C11.3296 14.2079 11.1028 14.3293 10.9203 14.57C10.7381 14.8107 10.6467 15.1143 10.6467 15.481C10.6467 15.6726 10.6903 15.8334 10.7774 15.9634C10.8645 16.0935 10.9878 16.1584 11.1472 16.1584C11.3066 16.1584 11.4389 16.1158 11.5441 16.0305C11.3107 15.8259 11.194 15.5299 11.194 15.142C11.1907 14.9376 11.2475 14.7513 11.3641 14.5829C11.4808 14.4146 11.6304 14.3293 11.8128 14.3272C11.9952 14.3251 12.1258 14.3901 12.2048 14.5221C12.2837 14.6542 12.3231 14.8236 12.3231 15.0303C12.3231 15.2369 12.2853 15.4553 12.2097 15.6855H12.2393C12.3839 15.6812 12.5088 15.6151 12.614 15.4872C12.6535 15.436 12.6871 15.3913 12.7151 15.3531C12.743 15.3147 12.7719 15.2955 12.8014 15.2955C12.8474 15.2955 12.8704 15.3659 12.8704 15.5063C12.8704 15.7664 12.8113 15.9613 12.6929 16.0912C12.5746 16.2212 12.4439 16.2861 12.301 16.2861C12.158 16.2861 12.0372 16.2734 11.9386 16.2479Z" fill="white"/>
<path d="M23.6 16.2027C23.6 16.5559 23.3791 16.8423 23.1065 16.8423C22.8342 16.8421 22.6133 16.5557 22.6133 16.2025C22.6133 15.8492 22.8343 15.5629 23.1067 15.5631C23.3792 15.5631 23.6 15.8495 23.6 16.2027Z" fill="#C1E8FB"/>
<path d="M15.8746 13.0946C15.9174 13.0946 15.9388 13.1672 15.9388 13.312C15.9388 13.4567 15.9321 13.5932 15.9191 13.721C15.8894 13.9682 15.8517 14.1983 15.8056 14.4113C15.6874 14.9907 15.6281 15.3295 15.6281 15.4275V16.367C15.6281 16.5971 15.5607 16.7549 15.426 16.8402C15.3634 16.8785 15.3036 16.9147 15.246 16.9488C15.1885 16.9828 15.1235 17 15.0512 17C14.9133 17 14.8442 16.7944 14.8442 16.3831C14.8442 15.9719 14.9182 15.453 15.066 14.8268C15.214 14.2004 15.3684 13.7232 15.5296 13.3949C15.5623 13.3311 15.6099 13.2652 15.6726 13.1969C15.735 13.1287 15.8024 13.0946 15.8746 13.0946ZM18.0194 15.3956C18.0752 15.3956 18.1033 15.4936 18.1033 15.6896C18.1033 15.7961 18.0688 15.9252 17.9998 16.0764C17.9307 16.2277 17.8411 16.3662 17.731 16.4917C17.6209 16.6176 17.4984 16.721 17.3637 16.8016C17.2289 16.8828 17.1007 16.9232 16.9792 16.9232C16.8575 16.9232 16.7622 16.8935 16.6932 16.8337C16.6242 16.7741 16.5699 16.6931 16.5304 16.5909C16.4746 16.4461 16.4285 16.1701 16.3924 15.763C16.3561 15.3563 16.32 15.0719 16.2839 14.9099C16.1983 14.8885 16.1237 14.845 16.0595 14.7788C15.9955 14.7128 15.9634 14.6318 15.9634 14.5359C15.9634 14.4401 15.9971 14.3707 16.0645 14.3281C16.1318 14.2857 16.2091 14.2642 16.2963 14.2642C16.3832 14.2642 16.4614 14.292 16.5304 14.3474C16.6224 14.2494 16.6972 14.1333 16.7548 13.9989C16.8123 13.8647 16.841 13.6837 16.841 13.4558C16.841 13.2279 16.7819 13.0456 16.6635 12.9093C16.5452 12.7728 16.3719 12.7048 16.1433 12.7048C15.9149 12.7048 15.7398 12.7282 15.6183 12.7751C15.4966 12.8219 15.3922 12.8732 15.3052 12.9285C15.218 12.9839 15.1408 13.035 15.0734 13.0819C15.006 13.1287 14.9428 13.1522 14.8837 13.1522C14.8245 13.1522 14.7949 13.1277 14.7949 13.0787C14.7949 13.0298 14.8261 12.9499 14.8885 12.839C14.951 12.7282 15.0431 12.6175 15.1647 12.5065C15.4703 12.2297 15.8155 12.0922 16.2001 12.0944C16.5847 12.0965 16.9018 12.1914 17.1517 12.3788C17.4442 12.6004 17.5905 12.9326 17.5905 13.3759C17.5937 13.7424 17.5198 14.047 17.3686 14.2899C17.2174 14.5328 17.0301 14.7076 16.8065 14.814C16.8559 14.9545 16.8961 15.1058 16.9274 15.2677C16.9584 15.4297 16.989 15.5789 17.0185 15.7152C17.0482 15.8516 17.0817 15.9645 17.1196 16.0539C17.1573 16.1434 17.2034 16.1882 17.2576 16.1882C17.3119 16.1882 17.3777 16.1467 17.4549 16.0635C17.5321 15.9804 17.6085 15.89 17.6841 15.792C17.7597 15.6938 17.8279 15.6032 17.8888 15.5202C17.9496 15.437 17.993 15.3956 18.0194 15.3956Z" fill="#C1E8FB"/>
<path d="M22.2654 15.3956C22.3212 15.3956 22.3492 15.4936 22.3492 15.6896C22.3492 15.7961 22.3147 15.9252 22.2456 16.0764C22.1766 16.2277 22.087 16.3662 21.9769 16.4917C21.8666 16.6176 21.7442 16.7209 21.6096 16.8016C21.4747 16.8828 21.3325 16.9232 21.1831 16.9232C21.0335 16.9232 20.9169 16.8603 20.833 16.7346C20.7491 16.609 20.7072 16.4683 20.7072 16.3127C20.7072 16.1573 20.7269 15.9815 20.7665 15.7855C20.8059 15.5895 20.8487 15.385 20.8947 15.1719C21.0196 14.6053 21.0836 14.2068 21.087 13.9767C21.087 13.8787 21.077 13.803 21.0573 13.7497C21.0376 13.6964 20.9999 13.6698 20.944 13.6698C20.8453 13.6698 20.7401 13.7466 20.6284 13.8999C20.5166 14.0534 20.4114 14.2494 20.3129 14.4879C20.086 15.0334 19.9661 15.5661 19.9529 16.0859C19.9594 16.1457 19.9661 16.2052 19.9727 16.2649C19.9792 16.3246 19.9824 16.3884 19.9824 16.4565C19.9824 16.593 19.9307 16.7176 19.8272 16.8306C19.7237 16.9433 19.6078 17 19.4796 17C19.404 17 19.3481 16.9519 19.3119 16.856C19.2756 16.7603 19.2576 16.6419 19.2576 16.5015C19.2576 16.3608 19.2821 16.169 19.3316 15.9261C19.381 15.6831 19.4351 15.4253 19.4943 15.1526C19.6521 14.4326 19.7327 13.8957 19.7359 13.5421C19.7359 13.363 19.7187 13.2225 19.6842 13.1201C19.6497 13.018 19.5831 12.9668 19.4845 12.9668C19.307 12.9668 19.1309 13.1309 18.9568 13.459C18.7825 13.7872 18.6265 14.2963 18.4883 14.9866C18.4522 15.1655 18.4243 15.3211 18.4046 15.453L18.3996 15.5746C18.462 15.9667 18.4933 16.2223 18.4933 16.3417C18.4933 16.5888 18.4259 16.7549 18.2913 16.8402C18.2286 16.8785 18.1686 16.9147 18.1111 16.9488C18.0537 16.9828 17.9921 17 17.9262 17C17.7619 17 17.6797 16.7964 17.6797 16.3895C17.6797 15.9826 17.7669 15.1869 17.9412 14.0021C18.0035 13.5761 18.0348 13.3375 18.0348 13.2864C18.0348 12.9411 17.9673 12.7687 17.8327 12.7687C17.7866 12.7687 17.7447 12.7857 17.7068 12.8198C17.6691 12.8539 17.6312 12.89 17.5935 12.9285C17.5556 12.9668 17.5172 13.003 17.4776 13.0371C17.4382 13.0712 17.3929 13.0883 17.342 13.0883C17.291 13.0883 17.2656 13.0306 17.2656 12.9156C17.2656 12.6813 17.3494 12.4896 17.5172 12.3404C17.6781 12.1869 17.8738 12.1103 18.1037 12.1103C18.3996 12.1103 18.5739 12.2893 18.6265 12.6472C18.6395 12.7538 18.6495 12.8667 18.656 12.9859C18.8992 12.3938 19.2065 12.0976 19.5781 12.0976C19.9824 12.0976 20.2142 12.3491 20.2734 12.8518C20.2931 12.9966 20.3014 13.1522 20.298 13.3184V13.3694C20.5116 12.9859 20.7647 12.7942 21.0573 12.7942C21.4715 12.7942 21.6785 13.1181 21.6785 13.7658C21.6785 14.047 21.6449 14.3762 21.5775 14.7532C21.5101 15.1304 21.4608 15.401 21.4296 15.565C21.3983 15.7289 21.3828 15.8558 21.3828 15.9453C21.3828 16.1072 21.4263 16.1881 21.5135 16.1881C21.6004 16.1881 21.8084 15.9667 22.1371 15.5233C22.1963 15.4382 22.2391 15.3956 22.2654 15.3956Z" fill="#C1E8FB"/>
<path d="M15.2425 14.5475C15.3254 14.5475 15.3671 14.6503 15.3671 14.8555C15.3671 15.0609 15.3314 15.2814 15.2597 15.5172C15.1883 15.7529 15.0799 15.9801 14.9345 16.1987C14.7891 16.4176 14.6034 16.6047 14.3775 16.7593C14.1511 16.9143 13.8847 16.9917 13.578 16.9917C13.271 16.9917 13.0024 16.859 12.7718 16.5929C12.541 16.3268 12.4258 15.9428 12.4258 15.4412C12.4258 14.9399 12.4799 14.4852 12.5883 14.0779C12.6967 13.6705 12.8397 13.3187 13.0174 13.0224C13.1949 12.7261 13.3969 12.4954 13.623 12.3304C13.8491 12.1656 14.0635 12.083 14.2665 12.083C14.6218 12.083 14.7995 12.2886 14.7995 12.6991C14.7995 12.935 14.7661 13.1233 14.6993 13.2648C14.6321 13.406 14.5642 13.4768 14.495 13.4768C14.4026 13.4768 14.3221 13.4298 14.2529 13.3353C14.1835 13.2412 14.1074 13.1923 14.0243 13.189C13.9412 13.1857 13.7157 13.1776 13.5239 13.5771C13.3899 13.8563 13.4105 13.828 13.3595 14.0165C13.2581 14.3937 13.1986 14.6833 13.1986 15.1882C13.2032 15.4307 13.3705 15.8014 13.5181 15.9227C13.6195 16.0034 13.7406 16.0712 13.8781 16.0487C14.1746 16.0005 14.341 15.8182 14.4622 15.6499C14.574 15.4945 14.6725 15.3472 14.7788 15.1886C14.8847 15.0306 14.9782 14.8843 15.0591 14.7494C15.1398 14.6148 15.2008 14.5475 15.2425 14.5475Z" fill="#C1E8FB"/>
</g>
<defs>
<clipPath id="clip0_6_16894">
<rect width="28" height="28" fill="white"/>
</clipPath>
</defs>
</svg>
