<svg width="24" height="24" viewBox="0 0 24 24" fill="none" xmlns="http://www.w3.org/2000/svg">
<path d="M8 2V5" stroke="#BFBEFC" stroke-width="1.5" stroke-miterlimit="10" stroke-linecap="round" stroke-linejoin="round"/>
<path d="M16 2V5" stroke="#BFBEFC" stroke-width="1.5" stroke-miterlimit="10" stroke-linecap="round" stroke-linejoin="round"/>
<path d="M3.5 9.08984H20.5" stroke="#BFBEFC" stroke-width="1.5" stroke-miterlimit="10" stroke-linecap="round" stroke-linejoin="round"/>
<path d="M19.2091 15.7698L15.6691 19.3098C15.5291 19.4498 15.3991 19.7098 15.3691 19.8998L15.1791 21.2498C15.1091 21.7398 15.4491 22.0798 15.9391 22.0098L17.2891 21.8198C17.4791 21.7898 17.7491 21.6598 17.8791 21.5198L21.4191 17.9798C22.0291 17.3698 22.3191 16.6598 21.4191 15.7598C20.5291 14.8698 19.8191 15.1598 19.2091 15.7698Z" stroke="#BFBEFC" stroke-width="1.5" stroke-miterlimit="10" stroke-linecap="round" stroke-linejoin="round"/>
<path d="M18.6992 16.2798C18.9992 17.3598 19.8392 18.1998 20.9192 18.4998" stroke="#BFBEFC" stroke-width="1.5" stroke-miterlimit="10" stroke-linecap="round" stroke-linejoin="round"/>
<path d="M12 22H8C4.5 22 3 20 3 17V8.5C3 5.5 4.5 3.5 8 3.5H16C19.5 3.5 21 5.5 21 8.5V12" stroke="#BFBEFC" stroke-width="1.5" stroke-miterlimit="10" stroke-linecap="round" stroke-linejoin="round"/>
<path d="M11.9945 13.7002H12.0035" stroke="#BFBEFC" stroke-width="1.5" stroke-linecap="round" stroke-linejoin="round"/>
<path d="M8.29529 13.7002H8.30427" stroke="#BFBEFC" stroke-width="1.5" stroke-linecap="round" stroke-linejoin="round"/>
<path d="M8.29529 16.7002H8.30427" stroke="#BFBEFC" stroke-width="1.5" stroke-linecap="round" stroke-linejoin="round"/>
</svg>
