<svg width="28" height="28" viewBox="0 0 28 28" fill="none" xmlns="http://www.w3.org/2000/svg">
<path d="M11.298 27.8385C8.84881 27.3321 6.56358 26.2025 4.76955 24.6116C0.163684 20.5273 -1.25972 14.1109 1.17339 8.40197C1.77094 6.99993 2.74232 5.57701 3.94592 4.34086L5.00706 3.25112L5.08191 9.62949C5.15356 15.7349 5.16972 16.0424 5.45881 16.8117C6.03754 18.351 6.65781 19.3308 7.72578 20.3927C10.4844 23.1358 14.5307 23.8206 17.9706 22.1261C21.2037 20.5335 23.2419 17.0705 23.0051 13.5724C22.8459 11.2228 22.0545 9.49992 20.346 7.7832C19.0539 6.48512 17.5339 5.63713 15.8792 5.29142C14.1954 4.93973 14.2762 4.88837 14.2762 6.31129V7.53978L15.1992 7.70958C18.7741 8.36732 21.1383 11.8723 20.3932 15.4097C20.1552 16.5394 19.6243 17.5371 18.7722 18.4561C17.4773 19.8526 15.6554 20.52 14.0646 20.5171C11.4341 20.512 9.2377 19.0196 8.17321 16.8124C8.17321 16.8124 7.89444 16.1817 7.80467 15.7917C7.27766 13.4992 7.61469 8.67336 7.61469 8.67336L7.57385 1.61694L7.99103 1.40149C8.22046 1.28306 8.44055 1.18605 8.48014 1.18605C8.51958 1.18605 8.56976 4.42715 8.59165 8.38833C8.59165 8.38833 8.08498 13.5809 8.71096 15.5708C8.80128 15.858 8.97287 16.3491 8.97287 16.3491C9.52163 17.4656 10.4013 18.4476 11.5443 18.9881C12.4118 19.3984 12.8486 19.5842 14.1321 19.5842C14.9708 19.5842 15.7137 19.3198 16.5686 18.9273C17.5763 18.4646 18.7322 17.2376 19.1595 16.1174C20.3364 13.0309 18.6975 9.71021 15.5403 8.78428C14.25 8.40587 14.2764 8.38513 14.2764 9.78606V11.0097L14.8956 11.1752C17.1283 11.7714 17.8095 14.7593 16.0569 16.2946C15.4376 16.8371 14.8796 17.0767 13.9036 17.0767C12.8606 17.0767 11.8595 16.4464 11.3448 15.4797C11.0356 14.8989 11.0096 14.3482 11.0096 14.0957C11.0096 11.7654 10.959 7.57402 10.959 7.57402L10.9172 0.384686L11.2377 0.305218C11.4139 0.261238 12.1266 0.1531 12.821 0.0645848C15.1766 -0.235475 18.6616 0.53416 21.0028 1.87177C24.1948 3.69523 26.6099 6.82777 27.6156 10.4485C27.9615 11.694 28 12.056 28 14.0596C28 16.0541 27.9606 16.4283 27.622 17.6464C26.2543 22.5674 22.7751 26.0852 17.8004 27.5772C16.7534 27.8913 16.263 27.9511 14.4156 27.9905C12.9247 28.0222 11.9584 27.9752 11.298 27.8385Z" fill="#C60C30"/>
</svg>
