<svg width="24" height="24" viewBox="0 0 24 24" fill="none" xmlns="http://www.w3.org/2000/svg">
    <path d="M9.00012 10.38C10.3146 10.38 11.3801 9.31444 11.3801 8C11.3801 6.68557 10.3146 5.62 9.00012 5.62C7.68568 5.62 6.62012 6.68557 6.62012 8C6.62012 9.31444 7.68568 10.38 9.00012 10.38Z" fill="#BFBEFC"/>
    <path d="M20.97 8H20.5V12.61L20.37 12.5C19.59 11.83 18.33 11.83 17.55 12.5L13.39 16.07C12.61 16.74 11.35 16.74 10.57 16.07L10.23 15.79C9.52 15.17 8.39 15.11 7.59 15.65L3.85 18.16C3.63 17.6 3.5 16.95 3.5 16.19V7.81C3.5 4.99 4.99 3.5 7.81 3.5H16V3.03C16 2.63 16.07 2.29 16.23 2H7.81C4.17 2 2 4.17 2 7.81V16.19C2 17.28 2.19 18.23 2.56 19.03C3.42 20.93 5.26 22 7.81 22H16.19C19.83 22 22 19.83 22 16.19V7.77C21.71 7.93 21.37 8 20.97 8Z" fill="#BFBEFC"/>
    <g clip-path="url(#clip0_1013_4863)">
        <path d="M9.24992 21.1667H14.7499C19.3333 21.1667 21.1666 19.3333 21.1666 14.75V9.25C21.1666 4.66667 19.3333 2.83334 14.7499 2.83334H9.24992C4.66659 2.83334 2.83325 4.66667 2.83325 9.25V14.75C2.83325 19.3333 4.66659 21.1667 9.24992 21.1667Z" stroke="#BFBEFC" stroke-width="1.5" stroke-linecap="round" stroke-linejoin="round"/>
    </g>
    <defs>
        <clipPath id="clip0_1013_4863">
            <rect width="22" height="22" fill="white" transform="translate(1 1)"/>
        </clipPath>
    </defs>
</svg>
