<svg width="34" height="34" viewBox="0 0 34 34" fill="none" xmlns="http://www.w3.org/2000/svg">
<path d="M10.2715 9.91683H23.7298V7.0835C23.7298 4.25016 22.6673 2.8335 19.4798 2.8335H14.5215C11.334 2.8335 10.2715 4.25016 10.2715 7.0835V9.91683Z" stroke="#61657C" stroke-width="1.5" stroke-miterlimit="10" stroke-linecap="round" stroke-linejoin="round"/>
<path d="M22.6673 21.25V26.9167C22.6673 29.75 21.2507 31.1667 18.4173 31.1667H15.584C12.7507 31.1667 11.334 29.75 11.334 26.9167V21.25H22.6673Z" stroke="#61657C" stroke-width="1.5" stroke-miterlimit="10" stroke-linecap="round" stroke-linejoin="round"/>
<path d="M29.75 14.1665V21.2498C29.75 24.0832 28.3333 25.4998 25.5 25.4998H22.6667V21.2498H11.3333V25.4998H8.5C5.66667 25.4998 4.25 24.0832 4.25 21.2498V14.1665C4.25 11.3332 5.66667 9.9165 8.5 9.9165H25.5C28.3333 9.9165 29.75 11.3332 29.75 14.1665Z" stroke="#61657C" stroke-width="1.5" stroke-miterlimit="10" stroke-linecap="round" stroke-linejoin="round"/>
<path d="M24.0827 21.25H22.3685H9.91602" stroke="#61657C" stroke-width="1.5" stroke-miterlimit="10" stroke-linecap="round" stroke-linejoin="round"/>
<path d="M9.91602 15.5835H14.166" stroke="#61657C" stroke-width="1.5" stroke-miterlimit="10" stroke-linecap="round" stroke-linejoin="round"/>
</svg>
