<svg width="34" height="34" viewBox="0 0 34 34" fill="none" xmlns="http://www.w3.org/2000/svg">
<path d="M17 32C25.2843 32 32 25.2843 32 17C32 8.71573 25.2843 2 17 2C8.71573 2 2 8.71573 2 17C2 25.2843 8.71573 32 17 32Z" fill="url(#paint0_linear_6_17020)"/>
<path d="M24.9858 10.2843C25.1181 9.42853 24.3045 8.75302 23.5435 9.08712L8.38762 15.7413C7.84193 15.9809 7.88185 16.8076 8.44781 16.9878L11.5733 17.9831C12.1699 18.1731 12.8158 18.0748 13.3367 17.7149L20.3834 12.8466C20.5959 12.6997 20.8276 13.0019 20.646 13.189L15.5736 18.4186C15.0816 18.926 15.1792 19.7857 15.7711 20.1568L21.4502 23.7181C22.0872 24.1175 22.9066 23.7163 23.0257 22.9465L24.9858 10.2843Z" fill="white"/>
<defs>
<linearGradient id="paint0_linear_6_17020" x1="17" y1="2" x2="17" y2="32" gradientUnits="userSpaceOnUse">
<stop stop-color="#37BBFE"/>
<stop offset="1" stop-color="#007DBB"/>
</linearGradient>
</defs>
</svg>
