<svg width="34" height="34" viewBox="0 0 34 34" fill="none" xmlns="http://www.w3.org/2000/svg">
<path d="M17 2C8.71562 2 2 8.71562 2 17C2 25.2844 8.71562 32 17 32C25.2844 32 32 25.2844 32 17C32 8.71562 25.2844 2 17 2ZM22.7687 18.9234C22.7687 18.9234 24.0953 20.2328 24.4219 20.8406C24.4312 20.8531 24.4359 20.8656 24.4391 20.8719C24.5719 21.0953 24.6031 21.2687 24.5375 21.3984C24.4281 21.6141 24.0531 21.7203 23.925 21.7297H21.5812C21.4187 21.7297 21.0781 21.6875 20.6656 21.4031C20.3484 21.1812 20.0359 20.8172 19.7312 20.4625C19.2766 19.9344 18.8828 19.4781 18.4859 19.4781C18.4355 19.478 18.3854 19.4859 18.3375 19.5016C18.0375 19.5984 17.6531 20.0266 17.6531 21.1672C17.6531 21.5234 17.3719 21.7281 17.1734 21.7281H16.1C15.7344 21.7281 13.8297 21.6 12.1422 19.8203C10.0766 17.6406 8.21719 13.2687 8.20156 13.2281C8.08437 12.9453 8.32656 12.7937 8.59062 12.7937H10.9578C11.2734 12.7937 11.3766 12.9859 11.4484 13.1562C11.5328 13.3547 11.8422 14.1437 12.35 15.0312C13.1734 16.4781 13.6781 17.0656 14.0828 17.0656C14.1587 17.0647 14.2332 17.0454 14.3 17.0094C14.8281 16.7156 14.7297 14.8328 14.7062 14.4422C14.7062 14.3687 14.7047 13.6 14.4344 13.2312C14.2406 12.9641 13.9109 12.8625 13.7109 12.825C13.7919 12.7133 13.8985 12.6227 14.0219 12.5609C14.3844 12.3797 15.0375 12.3531 15.6859 12.3531H16.0469C16.75 12.3625 16.9313 12.4078 17.1859 12.4719C17.7016 12.5953 17.7125 12.9281 17.6672 14.0672C17.6531 14.3906 17.6391 14.7562 17.6391 15.1875C17.6391 15.2812 17.6344 15.3812 17.6344 15.4875C17.6187 16.0672 17.6 16.725 18.0094 16.9953C18.0628 17.0288 18.1245 17.0467 18.1875 17.0469C18.3297 17.0469 18.7578 17.0469 19.9172 15.0578C20.2747 14.4176 20.5855 13.7523 20.8469 13.0672C20.8703 13.0266 20.9391 12.9016 21.0203 12.8531C21.0803 12.8226 21.1468 12.807 21.2141 12.8078H23.9969C24.3 12.8078 24.5078 12.8531 24.5469 12.9703C24.6156 13.1562 24.5344 13.7234 23.2641 15.4437L22.6969 16.1922C21.5453 17.7016 21.5453 17.7781 22.7687 18.9234Z" fill="#5181B8"/>
</svg>
