<svg width="36" height="36" viewBox="0 0 36 36" fill="none" xmlns="http://www.w3.org/2000/svg">
<path d="M32.5052 10.4251C31.5452 7.1701 28.8302 4.4551 25.5752 3.4951C23.1002 2.7751 21.3902 2.8351 20.2052 3.7201C18.7802 4.7851 18.6152 6.7051 18.6152 8.0701V11.8051C18.6152 15.4951 20.2952 17.3701 23.5952 17.3701H27.9002C29.2502 17.3701 31.1852 17.2051 32.2502 15.7801C33.1652 14.6101 33.2402 12.9001 32.5052 10.4251Z" fill="url(#paint0_linear_6_11418)"/>
<path d="M28.3651 20.0402C27.9751 19.5902 27.4051 19.3352 26.8201 19.3352H21.4501C18.8101 19.3352 16.6651 17.1902 16.6651 14.5502V9.18022C16.6651 8.59522 16.4101 8.02523 15.9601 7.63523C15.5251 7.24523 14.9251 7.06523 14.3551 7.14023C10.8301 7.59023 7.59009 9.52522 5.47509 12.4352C3.34509 15.3602 2.56509 18.9302 3.24009 22.5002C4.21509 27.6602 8.34009 31.7852 13.5151 32.7602C14.3401 32.9252 15.1651 33.0002 15.9901 33.0002C18.7051 33.0002 21.3301 32.1602 23.5651 30.5252C26.4751 28.4102 28.4101 25.1702 28.8601 21.6452C28.9351 21.0602 28.7551 20.4752 28.3651 20.0402Z" fill="url(#paint1_linear_6_11418)"/>
<defs>
<linearGradient id="paint0_linear_6_11418" x1="18.6152" y1="3.00098" x2="32.9843" y2="17.3884" gradientUnits="userSpaceOnUse">
<stop stop-color="#7095FF"/>
<stop offset="1" stop-color="#C57DFF"/>
</linearGradient>
<linearGradient id="paint1_linear_6_11418" x1="3.00391" y1="7.12354" x2="28.8806" y2="32.9964" gradientUnits="userSpaceOnUse">
<stop stop-color="#7095FF"/>
<stop offset="1" stop-color="#C57DFF"/>
</linearGradient>
</defs>
</svg>
