<svg width="36" height="36" viewBox="0 0 36 36" fill="none" xmlns="http://www.w3.org/2000/svg">
<path d="M30.15 13.8301C27.435 13.8301 26.325 11.9101 27.675 9.55515C28.455 8.19015 27.99 6.45015 26.625 5.67015L24.03 4.18515C22.845 3.48015 21.315 3.90015 20.61 5.08515L20.445 5.37015C19.095 7.72515 16.875 7.72515 15.51 5.37015L15.345 5.08515C14.67 3.90015 13.14 3.48015 11.955 4.18515L9.36 5.67015C7.995 6.45015 7.53 8.20515 8.31 9.57015C9.675 11.9101 8.565 13.8301 5.85 13.8301C4.29 13.8301 3 15.1051 3 16.6801V19.3201C3 20.8801 4.275 22.1701 5.85 22.1701C8.565 22.1701 9.675 24.0901 8.31 26.4451C7.53 27.8101 7.995 29.5501 9.36 30.3301L11.955 31.8151C13.14 32.5201 14.67 32.1002 15.375 30.9151L15.54 30.6301C16.89 28.2752 19.11 28.2752 20.475 30.6301L20.64 30.9151C21.345 32.1002 22.875 32.5201 24.06 31.8151L26.655 30.3301C28.02 29.5501 28.485 27.7951 27.705 26.4451C26.34 24.0901 27.45 22.1701 30.165 22.1701C31.725 22.1701 33.015 20.8951 33.015 19.3201V16.6801C33 15.1201 31.725 13.8301 30.15 13.8301ZM18 22.8751C15.315 22.8751 13.125 20.6851 13.125 18.0001C13.125 15.3151 15.315 13.1251 18 13.1251C20.685 13.1251 22.875 15.3151 22.875 18.0001C22.875 20.6851 20.685 22.8751 18 22.8751Z" fill="url(#paint0_linear_6_11479)"/>
<defs>
<linearGradient id="paint0_linear_6_11479" x1="3" y1="3.8418" x2="31.2687" y2="33.806" gradientUnits="userSpaceOnUse">
<stop stop-color="#7095FF"/>
<stop offset="1" stop-color="#C57DFF"/>
</linearGradient>
</defs>
</svg>
