<svg width="36" height="36" viewBox="0 0 36 36" fill="none" xmlns="http://www.w3.org/2000/svg">
<path d="M18 22.5C20.4853 22.5 22.5 20.4853 22.5 18C22.5 15.5147 20.4853 13.5 18 13.5C15.5147 13.5 13.5 15.5147 13.5 18C13.5 20.4853 15.5147 22.5 18 22.5Z" stroke="#C6B2EF" stroke-width="1.5" stroke-miterlimit="10" stroke-linecap="round" stroke-linejoin="round"/>
<path d="M3 19.3201V16.6801C3 15.1201 4.275 13.8301 5.85 13.8301C8.565 13.8301 9.675 11.9101 8.31 9.55515C7.53 8.20515 7.995 6.45015 9.36 5.67015L11.955 4.18515C13.14 3.48015 14.67 3.90015 15.375 5.08515L15.54 5.37015C16.89 7.72515 19.11 7.72515 20.475 5.37015L20.64 5.08515C21.345 3.90015 22.875 3.48015 24.06 4.18515L26.655 5.67015C28.02 6.45015 28.485 8.20515 27.705 9.55515C26.34 11.9101 27.45 13.8301 30.165 13.8301C31.725 13.8301 33.015 15.1051 33.015 16.6801V19.3201C33.015 20.8801 31.74 22.1701 30.165 22.1701C27.45 22.1701 26.34 24.0901 27.705 26.4451C28.485 27.8101 28.02 29.5501 26.655 30.3301L24.06 31.8151C22.875 32.5201 21.345 32.1002 20.64 30.9152L20.475 30.6301C19.125 28.2751 16.905 28.2751 15.54 30.6301L15.375 30.9152C14.67 32.1002 13.14 32.5201 11.955 31.8151L9.36 30.3301C7.995 29.5501 7.53 27.7951 8.31 26.4451C9.675 24.0901 8.565 22.1701 5.85 22.1701C4.275 22.1701 3 20.8801 3 19.3201Z" stroke="#C6B2EF" stroke-width="1.5" stroke-miterlimit="10" stroke-linecap="round" stroke-linejoin="round"/>
</svg>
