<svg width="36" height="36" viewBox="0 0 36 36" fill="none" xmlns="http://www.w3.org/2000/svg">
    <path d="M32.2951 16.305L30.0151 14.025C29.6251 13.635 29.3101 12.87 29.3101 12.33V9.09001C29.3101 7.77001 28.2301 6.69001 26.9101 6.69001H23.6851C23.1451 6.69001 22.3801 6.37501 21.9901 5.98501L19.7101 3.70501C18.7801 2.77501 17.2501 2.77501 16.3201 3.70501L14.0101 5.98501C13.6351 6.37501 12.8701 6.69001 12.3151 6.69001H9.09007C7.77007 6.69001 6.69007 7.77001 6.69007 9.09001V12.315C6.69007 12.855 6.37507 13.62 5.98507 14.01L3.70507 16.29C2.77507 17.22 2.77507 18.75 3.70507 19.68L5.98507 21.96C6.37507 22.35 6.69007 23.115 6.69007 23.655V26.88C6.69007 28.2 7.77007 29.28 9.09007 29.28H12.3151C12.8551 29.28 13.6201 29.595 14.0101 29.985L16.2901 32.265C17.2201 33.195 18.7501 33.195 19.6801 32.265L21.9601 29.985C22.3501 29.595 23.1151 29.28 23.6551 29.28H26.8801C28.2001 29.28 29.2801 28.2 29.2801 26.88V23.655C29.2801 23.115 29.5951 22.35 29.9851 21.96L32.2651 19.68C33.2401 18.765 33.2401 17.235 32.2951 16.305ZM12.0001 13.5C12.0001 12.675 12.6751 12 13.5001 12C14.3251 12 15.0001 12.675 15.0001 13.5C15.0001 14.325 14.3401 15 13.5001 15C12.6751 15 12.0001 14.325 12.0001 13.5ZM14.2951 23.295C14.0701 23.52 13.7851 23.625 13.5001 23.625C13.2151 23.625 12.9301 23.52 12.7051 23.295C12.2701 22.86 12.2701 22.14 12.7051 21.705L21.7051 12.705C22.1401 12.27 22.8601 12.27 23.2951 12.705C23.7301 13.14 23.7301 13.86 23.2951 14.295L14.2951 23.295ZM22.5001 24C21.6601 24 20.9851 23.325 20.9851 22.5C20.9851 21.675 21.6601 21 22.4851 21C23.3101 21 23.9851 21.675 23.9851 22.5C23.9851 23.325 23.3251 24 22.5001 24Z" fill="url(#paint0_linear_297_7814)"/>
    <defs>
        <linearGradient id="paint0_linear_297_7814" x1="3.00757" y1="3.00751" x2="32.9625" y2="33" gradientUnits="userSpaceOnUse">
            <stop stop-color="#7095FF"/>
            <stop offset="1" stop-color="#C57DFF"/>
        </linearGradient>
    </defs>
</svg>
