<svg width="36" height="36" viewBox="0 0 36 36" fill="none" xmlns="http://www.w3.org/2000/svg">
<path d="M5.98334 21.9907L3.70336 19.7106C2.77336 18.7806 2.77336 17.2506 3.70336 16.3206L5.98334 14.0406C6.37334 13.6506 6.68834 12.8856 6.68834 12.3456V9.12053C6.68834 7.80053 7.76835 6.72057 9.08835 6.72057H12.3133C12.8533 6.72057 13.6184 6.40562 14.0084 6.01562L16.2883 3.73559C17.2183 2.80559 18.7484 2.80559 19.6784 3.73559L21.9584 6.01562C22.3484 6.40562 23.1133 6.72057 23.6533 6.72057H26.8784C28.1984 6.72057 29.2783 7.80053 29.2783 9.12053V12.3456C29.2783 12.8856 29.5933 13.6506 29.9833 14.0406L32.2634 16.3206C33.1934 17.2506 33.1934 18.7806 32.2634 19.7106L29.9833 21.9907C29.5933 22.3807 29.2783 23.1457 29.2783 23.6857V26.9105C29.2783 28.2305 28.1984 29.3107 26.8784 29.3107H23.6533C23.1133 29.3107 22.3484 29.6256 21.9584 30.0156L19.6784 32.2956C18.7484 33.2256 17.2183 33.2256 16.2883 32.2956L14.0084 30.0156C13.6184 29.6256 12.8533 29.3107 12.3133 29.3107H9.08835C7.76835 29.3107 6.68834 28.2305 6.68834 26.9105V23.6857C6.68834 23.1307 6.37334 22.3657 5.98334 21.9907Z" stroke="#C6B2EF" stroke-width="1.5" stroke-linecap="round" stroke-linejoin="round"/>
<path d="M13.5 22.5L22.5 13.5" stroke="#C6B2EF" stroke-width="1.5" stroke-linecap="round" stroke-linejoin="round"/>
<path d="M21.7418 21.75H21.7552" stroke="#C6B2EF" stroke-width="1.5" stroke-linecap="round" stroke-linejoin="round"/>
<path d="M14.2418 14.25H14.2552" stroke="#C6B2EF" stroke-width="1.5" stroke-linecap="round" stroke-linejoin="round"/>
</svg>
