<svg width="36" height="36" viewBox="0 0 36 36" fill="none" xmlns="http://www.w3.org/2000/svg">
<path d="M25.1253 5.34V3C25.1253 2.385 24.6153 1.875 24.0003 1.875C23.3853 1.875 22.8753 2.385 22.8753 3V5.25H13.1253V3C13.1253 2.385 12.6153 1.875 12.0003 1.875C11.3853 1.875 10.8753 2.385 10.8753 3V5.34C6.82534 5.715 4.86034 8.13 4.56034 11.715C4.53034 12.15 4.89034 12.51 5.31034 12.51H30.6903C31.1253 12.51 31.4853 12.135 31.4403 11.715C31.1403 8.13 29.1753 5.715 25.1253 5.34Z" fill="url(#paint0_linear_6_11452)"/>
<path d="M30 14.7598H6C5.175 14.7598 4.5 15.4348 4.5 16.2598V25.4998C4.5 29.9998 6.75 32.9998 12 32.9998H24C29.25 32.9998 31.5 29.9998 31.5 25.4998V16.2598C31.5 15.4348 30.825 14.7598 30 14.7598ZM13.815 27.3148C13.74 27.3748 13.665 27.4498 13.59 27.4948C13.5 27.5548 13.41 27.5998 13.32 27.6298C13.23 27.6748 13.14 27.7048 13.05 27.7198C12.945 27.7348 12.855 27.7498 12.75 27.7498C12.555 27.7498 12.36 27.7048 12.18 27.6298C11.985 27.5548 11.835 27.4498 11.685 27.3148C11.415 27.0298 11.25 26.6398 11.25 26.2498C11.25 25.8598 11.415 25.4698 11.685 25.1848C11.835 25.0498 11.985 24.9448 12.18 24.8698C12.45 24.7498 12.75 24.7198 13.05 24.7798C13.14 24.7948 13.23 24.8248 13.32 24.8698C13.41 24.8998 13.5 24.9448 13.59 25.0048C13.665 25.0648 13.74 25.1248 13.815 25.1848C14.085 25.4698 14.25 25.8598 14.25 26.2498C14.25 26.6398 14.085 27.0298 13.815 27.3148ZM13.815 22.0648C13.53 22.3348 13.14 22.4998 12.75 22.4998C12.36 22.4998 11.97 22.3348 11.685 22.0648C11.415 21.7798 11.25 21.3898 11.25 20.9998C11.25 20.6098 11.415 20.2198 11.685 19.9348C12.105 19.5148 12.765 19.3798 13.32 19.6198C13.515 19.6948 13.68 19.7998 13.815 19.9348C14.085 20.2198 14.25 20.6098 14.25 20.9998C14.25 21.3898 14.085 21.7798 13.815 22.0648ZM19.065 27.3148C18.78 27.5848 18.39 27.7498 18 27.7498C17.61 27.7498 17.22 27.5848 16.935 27.3148C16.665 27.0298 16.5 26.6398 16.5 26.2498C16.5 25.8598 16.665 25.4698 16.935 25.1848C17.49 24.6298 18.51 24.6298 19.065 25.1848C19.335 25.4698 19.5 25.8598 19.5 26.2498C19.5 26.6398 19.335 27.0298 19.065 27.3148ZM19.065 22.0648C18.99 22.1248 18.915 22.1848 18.84 22.2448C18.75 22.3048 18.66 22.3498 18.57 22.3798C18.48 22.4248 18.39 22.4548 18.3 22.4698C18.195 22.4848 18.105 22.4998 18 22.4998C17.61 22.4998 17.22 22.3348 16.935 22.0648C16.665 21.7798 16.5 21.3898 16.5 20.9998C16.5 20.6098 16.665 20.2198 16.935 19.9348C17.07 19.7998 17.235 19.6948 17.43 19.6198C17.985 19.3798 18.645 19.5148 19.065 19.9348C19.335 20.2198 19.5 20.6098 19.5 20.9998C19.5 21.3898 19.335 21.7798 19.065 22.0648ZM24.315 27.3148C24.03 27.5848 23.64 27.7498 23.25 27.7498C22.86 27.7498 22.47 27.5848 22.185 27.3148C21.915 27.0298 21.75 26.6398 21.75 26.2498C21.75 25.8598 21.915 25.4698 22.185 25.1848C22.74 24.6298 23.76 24.6298 24.315 25.1848C24.585 25.4698 24.75 25.8598 24.75 26.2498C24.75 26.6398 24.585 27.0298 24.315 27.3148ZM24.315 22.0648C24.24 22.1248 24.165 22.1848 24.09 22.2448C24 22.3048 23.91 22.3498 23.82 22.3798C23.73 22.4248 23.64 22.4548 23.55 22.4698C23.445 22.4848 23.34 22.4998 23.25 22.4998C22.86 22.4998 22.47 22.3348 22.185 22.0648C21.915 21.7798 21.75 21.3898 21.75 20.9998C21.75 20.6098 21.915 20.2198 22.185 19.9348C22.335 19.7998 22.485 19.6948 22.68 19.6198C22.95 19.4998 23.25 19.4698 23.55 19.5298C23.64 19.5448 23.73 19.5748 23.82 19.6198C23.91 19.6498 24 19.6948 24.09 19.7548C24.165 19.8148 24.24 19.8748 24.315 19.9348C24.585 20.2198 24.75 20.6098 24.75 20.9998C24.75 21.3898 24.585 21.7798 24.315 22.0648Z" fill="url(#paint1_linear_6_11452)"/>
<defs>
<linearGradient id="paint0_linear_6_11452" x1="4.55859" y1="1.875" x2="11.8339" y2="20.2671" gradientUnits="userSpaceOnUse">
<stop stop-color="#7095FF"/>
<stop offset="1" stop-color="#C57DFF"/>
</linearGradient>
<linearGradient id="paint1_linear_6_11452" x1="4.5" y1="14.7598" x2="21.4216" y2="39.8083" gradientUnits="userSpaceOnUse">
<stop stop-color="#7095FF"/>
<stop offset="1" stop-color="#C57DFF"/>
</linearGradient>
</defs>
</svg>
