<svg width="36" height="36" viewBox="0 0 36 36" fill="none" xmlns="http://www.w3.org/2000/svg">
<path d="M29.9396 13.4401C28.9346 12.3301 27.4196 11.6851 25.3196 11.4601V10.3201C25.3196 8.26509 24.4496 6.28509 22.9196 4.90509C21.3746 3.49509 19.3646 2.83509 17.2796 3.03009C13.6946 3.37509 10.6796 6.84009 10.6796 10.5901V11.4601C8.57962 11.6851 7.06462 12.3301 6.05962 13.4401C4.60462 15.0601 4.64962 17.2201 4.81462 18.7201L5.86462 27.0751C6.17962 30.0001 7.36462 33.0001 13.8146 33.0001H22.1846C28.6346 33.0001 29.8196 30.0001 30.1346 27.0901L31.1846 18.7051C31.3496 17.2201 31.3796 15.0601 29.9396 13.4401ZM17.4896 5.11509C18.9896 4.98009 20.4146 5.44509 21.5246 6.45009C22.6196 7.44009 23.2346 8.85009 23.2346 10.3201V11.3701H12.7646V10.5901C12.7646 7.92009 14.9696 5.35509 17.4896 5.11509ZM12.6296 19.7251H12.6146C11.7896 19.7251 11.1146 19.0501 11.1146 18.2251C11.1146 17.4001 11.7896 16.7251 12.6146 16.7251C13.4546 16.7251 14.1296 17.4001 14.1296 18.2251C14.1296 19.0501 13.4546 19.7251 12.6296 19.7251ZM23.1296 19.7251H23.1146C22.2896 19.7251 21.6146 19.0501 21.6146 18.2251C21.6146 17.4001 22.2896 16.7251 23.1146 16.7251C23.9546 16.7251 24.6296 17.4001 24.6296 18.2251C24.6296 19.0501 23.9546 19.7251 23.1296 19.7251Z" fill="url(#paint0_linear_6_11536)"/>
<defs>
<linearGradient id="paint0_linear_6_11536" x1="4.73437" y1="2.99658" x2="34.512" y2="29.325" gradientUnits="userSpaceOnUse">
<stop stop-color="#7095FF"/>
<stop offset="1" stop-color="#C57DFF"/>
</linearGradient>
</defs>
</svg>
