<svg width="36" height="36" viewBox="0 0 36 36" fill="none" xmlns="http://www.w3.org/2000/svg">
<path fill-rule="evenodd" clip-rule="evenodd" d="M30.75 16.95V10.56C30.75 4.51501 29.34 3 23.67 3H12.33C6.66 3 5.25 4.51501 5.25 10.56V27.45C5.25 31.44 7.44002 32.385 10.095 29.535L10.11 29.52C11.34 28.215 13.215 28.32 14.28 29.745L15.795 31.77L30.75 16.95ZM11 10.5C11 9.94772 11.4477 9.5 12 9.5H24C24.5523 9.5 25 9.94772 25 10.5C25 11.0523 24.5523 11.5 24 11.5H12C11.4477 11.5 11 11.0523 11 10.5ZM13.5 15.5C12.9477 15.5 12.5 15.9477 12.5 16.5C12.5 17.0523 12.9477 17.5 13.5 17.5H22.5C23.0523 17.5 23.5 17.0523 23.5 16.5C23.5 15.9477 23.0523 15.5 22.5 15.5H13.5Z" fill="url(#paint0_linear_6_11540)"/>
<path fill-rule="evenodd" clip-rule="evenodd" d="M27.0806 22.3913L27.3165 22.1554C28.2315 21.2404 29.2965 20.8054 30.6315 22.1404C31.9815 23.4904 31.5465 24.5554 30.6315 25.4704L30.3955 25.7065C30.3093 25.6245 30.2022 25.5618 30.0796 25.5278C28.713 25.1482 27.6511 24.0862 27.2715 22.7197C27.2357 22.591 27.1686 22.4796 27.0806 22.3913ZM25.9529 23.519L22.0065 27.4654C21.7965 27.6754 21.6015 28.0654 21.5565 28.3504L21.2715 30.3754C21.1665 31.1104 21.6765 31.6204 22.4115 31.5154L24.4365 31.2304C24.7215 31.1854 25.1265 30.9904 25.3215 30.7804L29.2622 26.8398C27.7205 26.2781 26.5095 25.0633 25.9529 23.519Z" fill="url(#paint1_linear_6_11540)"/>
<defs>
<linearGradient id="paint0_linear_6_11540" x1="5.25" y1="3" x2="33.8118" y2="28.3155" gradientUnits="userSpaceOnUse">
<stop stop-color="#7095FF"/>
<stop offset="1" stop-color="#C57DFF"/>
</linearGradient>
<linearGradient id="paint1_linear_6_11540" x1="21.2578" y1="21.2959" x2="31.4911" y2="31.5267" gradientUnits="userSpaceOnUse">
<stop stop-color="#7095FF"/>
<stop offset="1" stop-color="#C57DFF"/>
</linearGradient>
</defs>
</svg>
