<svg width="34" height="34" viewBox="0 0 34 34" fill="none" xmlns="http://www.w3.org/2000/svg">
<path d="M22.6673 18.2752V24.2252C22.6673 29.1835 20.684 31.1668 15.7257 31.1668H9.77565C4.81732 31.1668 2.83398 29.1835 2.83398 24.2252V18.2752C2.83398 13.3168 4.81732 11.3335 9.77565 11.3335H15.7257C20.684 11.3335 22.6673 13.3168 22.6673 18.2752Z" stroke="#61657C" stroke-width="1.5" stroke-linecap="round" stroke-linejoin="round"/>
<path d="M31.1673 9.77516V15.7252C31.1673 20.6835 29.184 22.6668 24.2257 22.6668H22.6673V18.2752C22.6673 13.3168 20.684 11.3335 15.7257 11.3335H11.334V9.77516C11.334 4.81683 13.3173 2.8335 18.2757 2.8335H24.2257C29.184 2.8335 31.1673 4.81683 31.1673 9.77516Z" stroke="#61657C" stroke-width="1.5" stroke-linecap="round" stroke-linejoin="round"/>
</svg>
