<svg width="36" height="36" viewBox="0 0 36 36" fill="none" xmlns="http://www.w3.org/2000/svg">
<path d="M21 4.38V16.845C21 18.375 19.755 19.62 18.225 19.62H4.5C3.675 19.62 3 18.945 3 18.12V8.535C3 5.475 5.475 3 8.535 3H19.605C20.385 3 21 3.615 21 4.38Z" fill="url(#paint0_linear_6_11431)"/>
<path d="M32.25 23.25C32.67 23.25 33 23.58 33 24V25.5C33 27.99 30.99 30 28.5 30C28.5 27.525 26.475 25.5 24 25.5C21.525 25.5 19.5 27.525 19.5 30H16.5C16.5 27.525 14.475 25.5 12 25.5C9.525 25.5 7.5 27.525 7.5 30C5.01 30 3 27.99 3 25.5V22.5C3 21.675 3.675 21 4.5 21H18.75C20.82 21 22.5 19.32 22.5 17.25V9C22.5 8.175 23.175 7.5 24 7.5H25.26C26.34 7.5 27.33 8.085 27.87 9.015L28.83 10.695C28.965 10.935 28.785 11.25 28.5 11.25C26.43 11.25 24.75 12.93 24.75 15V19.5C24.75 21.57 26.43 23.25 28.5 23.25H32.25Z" fill="url(#paint1_linear_6_11431)"/>
<path d="M12 33C13.6569 33 15 31.6569 15 30C15 28.3431 13.6569 27 12 27C10.3431 27 9 28.3431 9 30C9 31.6569 10.3431 33 12 33Z" fill="url(#paint2_linear_6_11431)"/>
<path d="M24 33C25.6569 33 27 31.6569 27 30C27 28.3431 25.6569 27 24 27C22.3431 27 21 28.3431 21 30C21 31.6569 22.3431 33 24 33Z" fill="url(#paint3_linear_6_11431)"/>
<path d="M33 18.795V21H28.5C27.675 21 27 20.325 27 19.5V15C27 14.175 27.675 13.5 28.5 13.5H30.435L32.61 17.31C32.865 17.76 33 18.27 33 18.795Z" fill="url(#paint4_linear_6_11431)"/>
<defs>
<linearGradient id="paint0_linear_6_11431" x1="3" y1="3" x2="19.5673" y2="20.9429" gradientUnits="userSpaceOnUse">
<stop stop-color="#7095FF"/>
<stop offset="1" stop-color="#C57DFF"/>
</linearGradient>
<linearGradient id="paint1_linear_6_11431" x1="3" y1="7.5" x2="24.6" y2="36.3" gradientUnits="userSpaceOnUse">
<stop stop-color="#7095FF"/>
<stop offset="1" stop-color="#C57DFF"/>
</linearGradient>
<linearGradient id="paint2_linear_6_11431" x1="9" y1="27" x2="15" y2="33" gradientUnits="userSpaceOnUse">
<stop stop-color="#7095FF"/>
<stop offset="1" stop-color="#C57DFF"/>
</linearGradient>
<linearGradient id="paint3_linear_6_11431" x1="21" y1="27" x2="27" y2="33" gradientUnits="userSpaceOnUse">
<stop stop-color="#7095FF"/>
<stop offset="1" stop-color="#C57DFF"/>
</linearGradient>
<linearGradient id="paint4_linear_6_11431" x1="27" y1="13.5" x2="34.3171" y2="19.3537" gradientUnits="userSpaceOnUse">
<stop stop-color="#7095FF"/>
<stop offset="1" stop-color="#C57DFF"/>
</linearGradient>
</defs>
</svg>
